<svg xmlns="http://www.w3.org/2000/svg" version="1.1" xmlns:xlink="http://www.w3.org/1999/xlink" xmlns:svgjs="http://svgjs.dev/svgjs" width="2000" height="1247" viewBox="0 0 2000 1247"><g transform="matrix(1,0,0,1,-1.2121212121212466,0.504858299595071)"><svg viewBox="0 0 396 247" data-background-color="#ffffff" preserveAspectRatio="xMidYMid meet" height="1247" width="2000" xmlns="http://www.w3.org/2000/svg" xmlns:xlink="http://www.w3.org/1999/xlink"><g id="tight-bounds" transform="matrix(1,0,0,1,0.2400000000000091,-0.09999999999999432)"><svg viewBox="0 0 395.52 247.2" height="247.2" width="395.52"><g><svg></svg></g><g><svg viewBox="0 0 395.52 247.2" height="247.2" width="395.52"><mask id="6ade6147-e762-4f3b-b673-8068bdb7b602"><rect width="640" height="400" fill="white"></rect><g transform="matrix(1,0,0,1,135.25772727272727,37.08)"><svg viewBox="0 0 125.00454545454545 173.04" height="173.04" width="125.00454545454545"><g><svg viewBox="0 0 125.00454545454545 173.04" height="173.04" width="125.00454545454545"><g><svg viewBox="0 0 125.00454545454545 173.04" height="173.04" width="125.00454545454545"><g><svg viewBox="0 0 125.00454545454545 173.04" height="173.04" width="125.00454545454545"><g id="SvgjsG1098"><svg viewBox="0 0 125.00454545454545 173.04" height="173.04" width="125.00454545454545" id="SvgjsSvg1097"><g><svg viewBox="0 0 125.00454545454545 173.04" height="173.04" width="125.00454545454545"><g transform="matrix(1,0,0,1,0,0)"><svg width="125.00454545454545" viewBox="-1.5499999999999998 -27.2 23.25 31.8" height="173.04" data-palette-color="#ed3b43"><path d="M8.55 0.6L8.55 0.6Q6.75 0.6 5.4 0.33 4.05 0.05 3.33-0.2 2.6-0.45 2.6-0.45L2.6-0.45 2.45-0.8Q2.55-1.35 2.68-2.63 2.8-3.9 2.93-5.3 3.05-6.7 3.05-7.5L3.05-7.5 4.8-7.75Q4.8-4.45 5.9-3.1 7-1.75 9.65-1.75L9.65-1.75Q11.55-1.75 12.85-2.6 14.15-3.45 14.15-4.7L14.15-4.7Q14.15-5.55 13.65-6.25 13.15-6.95 11.9-7.8 10.65-8.65 8.35-9.85L8.35-9.85Q5.5-11.3 4.2-12.8 2.9-14.3 2.9-16.1L2.9-16.1Q2.9-18.15 4.1-19.75 5.3-21.35 7.4-22.28 9.5-23.2 12.1-23.2L12.1-23.2Q14.15-23.2 15.63-22.8 17.1-22.4 17.1-22.4L17.1-22.4 17.2-22.15Q17.2-22.15 17.03-21.3 16.85-20.45 16.63-19.07 16.4-17.7 16.25-16.05L16.25-16.05 14.4-15.9Q14.4-15.9 14.45-16.45 14.5-17 14.5-17.35L14.5-17.35Q14.5-19.15 13.53-19.98 12.55-20.8 10.4-20.8L10.4-20.8Q8.7-20.8 7.53-20 6.35-19.2 6.35-18.05L6.35-18.05Q6.35-16.85 7.38-15.8 8.4-14.75 10.7-13.55L10.7-13.55Q13.4-12.15 14.93-11.03 16.45-9.9 17.07-8.85 17.7-7.8 17.7-6.55L17.7-6.55Q17.7-4.65 16.43-3 15.15-1.35 13.08-0.38 11 0.6 8.55 0.6Z" opacity="1" transform="matrix(1,0,0,1,0,0)" fill="black" class="wordmark-text-0" id="SvgjsPath1096" stroke-width="7" stroke="black" stroke-linejoin="round"></path></svg></g></svg></g></svg></g></svg></g></svg></g></svg></g></svg></g></mask><g transform="matrix(1,0,0,1,135.25772727272727,37.08)"><svg viewBox="0 0 125.00454545454545 173.04" height="173.04" width="125.00454545454545"><g><svg viewBox="0 0 125.00454545454545 173.04" height="173.04" width="125.00454545454545"><g><svg viewBox="0 0 125.00454545454545 173.04" height="173.04" width="125.00454545454545"><g><svg viewBox="0 0 125.00454545454545 173.04" height="173.04" width="125.00454545454545"><g id="textblocktransform"><svg viewBox="0 0 125.00454545454545 173.04" height="173.04" width="125.00454545454545" id="textblock"><g><svg viewBox="0 0 125.00454545454545 173.04" height="173.04" width="125.00454545454545"><g transform="matrix(1,0,0,1,0,0)"><svg width="125.00454545454545" viewBox="-1.5499999999999998 -27.2 23.25 31.8" height="173.04" data-palette-color="#ed3b43"><path d="M8.55 0.6L8.55 0.6Q6.75 0.6 5.4 0.33 4.05 0.05 3.33-0.2 2.6-0.45 2.6-0.45L2.6-0.45 2.45-0.8Q2.55-1.35 2.68-2.63 2.8-3.9 2.93-5.3 3.05-6.7 3.05-7.5L3.05-7.5 4.8-7.75Q4.8-4.45 5.9-3.1 7-1.75 9.65-1.75L9.65-1.75Q11.55-1.75 12.85-2.6 14.15-3.45 14.15-4.7L14.15-4.7Q14.15-5.55 13.65-6.25 13.15-6.95 11.9-7.8 10.65-8.65 8.35-9.85L8.35-9.85Q5.5-11.3 4.2-12.8 2.9-14.3 2.9-16.1L2.9-16.1Q2.9-18.15 4.1-19.75 5.3-21.35 7.4-22.28 9.5-23.2 12.1-23.2L12.1-23.2Q14.15-23.2 15.63-22.8 17.1-22.4 17.1-22.4L17.1-22.4 17.2-22.15Q17.2-22.15 17.03-21.3 16.85-20.45 16.63-19.07 16.4-17.7 16.25-16.05L16.25-16.05 14.4-15.9Q14.4-15.9 14.45-16.45 14.5-17 14.5-17.35L14.5-17.35Q14.5-19.15 13.53-19.98 12.55-20.8 10.4-20.8L10.4-20.8Q8.7-20.8 7.53-20 6.35-19.2 6.35-18.05L6.35-18.05Q6.35-16.85 7.38-15.8 8.4-14.75 10.7-13.55L10.7-13.55Q13.4-12.15 14.93-11.03 16.45-9.9 17.07-8.85 17.7-7.8 17.7-6.55L17.7-6.55Q17.7-4.65 16.43-3 15.15-1.35 13.08-0.38 11 0.6 8.55 0.6Z" opacity="1" transform="matrix(1,0,0,1,0,0)" fill="#ed3b43" class="wordmark-text-0" data-fill-palette-color="primary" id="text-0"></path></svg></g></svg></g></svg></g></svg></g></svg></g></svg></g></svg></g><g mask="url(#6ade6147-e762-4f3b-b673-8068bdb7b602)"><g transform="matrix(3.267770883696251, 0, 0, 3.267770883696251, 76.20984633449982, 1)"><svg xmlns="http://www.w3.org/2000/svg" data-name="Layer 1" viewBox="12.76425688996196 12.29988266358942 74.39331458147518 75.03586044644862" x="0" y="0" height="75.03586044644862" width="74.39331458147518" class="icon-none" data-fill-palette-color="accent" id="none"><g data-name="Group" fill="#fee717" data-fill-palette-color="accent"><path data-name="Compound Path" d="M28.2 47.9a17 17 0 1 0 24 0A17 17 0 0 0 28.2 47.9ZM48 67.7a11 11 0 1 1 0-15.6A11 11 0 0 1 48 67.7Z" fill="#fee717" data-fill-palette-color="accent"></path><path data-name="Path" d="M39.3 22L20.8 40.5A27.4 27.4 0 1 0 59.6 79.3L71.1 67.8a3 3 0 0 0-4.2-4.2L55.4 75A21.4 21.4 0 1 1 25.1 44.7L43.5 26.3A3 3 0 0 0 39.3 22Z" fill="#fee717" data-fill-palette-color="accent"></path><path data-name="Path" d="M56 39.7a3 3 0 1 0 4.2 4.2l3.2-3.2a3 3 0 0 0-4.2-4.2Z" fill="#fee717" data-fill-palette-color="accent"></path><path data-name="Path" d="M53.5 25.7l-7 7a3 3 0 1 0 4.2 4.2l7-7a3 3 0 0 0-4.2-4.2Z" fill="#fee717" data-fill-palette-color="accent"></path><path data-name="Path" d="M75.5 40.9a3 3 0 0 0-4.2 0l-8.9 8.9a3 3 0 1 0 4.2 4.2l8.9-8.9A3 3 0 0 0 75.5 40.9Z" fill="#fee717" data-fill-palette-color="accent"></path><path data-name="Path" d="M65.6 13.6L61.1 18a3 3 0 1 0 4.2 4.2l4.5-4.5a3 3 0 1 0-4.2-4.2Z" fill="#fee717" data-fill-palette-color="accent"></path><path data-name="Path" d="M70 25.7l-3.8 3.8a3 3 0 1 0 4.2 4.2l3.8-3.8A3 3 0 0 0 70 25.7Z" fill="#fee717" data-fill-palette-color="accent"></path><path data-name="Path" d="M86.3 30.1a3 3 0 0 0-4.2 0l-2.5 2.5a3 3 0 0 0 4.2 4.2l2.5-2.5A3 3 0 0 0 86.3 30.1Z" fill="#fee717" data-fill-palette-color="accent"></path><path data-name="Path" d="M78.7 16.9l-1.9 1.9a3 3 0 1 0 4.2 4.2L83 21.2a3 3 0 0 0-4.2-4.2Z" fill="#fee717" data-fill-palette-color="accent"></path></g></svg></g></g></svg></g><defs></defs></svg><rect width="395.52" height="247.2" fill="none" stroke="none" visibility="hidden"></rect></g></svg></g></svg>